<?xml version="1.0" encoding="utf-8"?>
<!-- Generator: Adobe Illustrator 24.0.1, SVG Export Plug-In . SVG Version: 6.00 Build 0)  -->
<svg version="1.1" id="Capa_1" xmlns="http://www.w3.org/2000/svg" xmlns:xlink="http://www.w3.org/1999/xlink" x="0px" y="0px"
	 viewBox="0 0 100 100" style="enable-background:new 0 0 100 100;" xml:space="preserve">
<g>
	<path d="M32.2,67.7L32.2,67.7C32.2,67.7,32.2,67.7,32.2,67.7l53.2,0c1.3,0,2.5-0.9,2.8-2.1L100,24.5c0.3-0.9,0.1-1.8-0.5-2.6
		c-0.6-0.7-1.4-1.2-2.3-1.2H25.4l-2.1-9.4C23.1,10,21.9,9,20.5,9H2.9C1.3,9,0,10.3,0,11.9c0,1.6,1.3,2.9,2.9,2.9h15.2
		c0.4,1.7,10,45.2,10.6,47.7c-3.1,1.4-5.3,4.5-5.3,8.1c0,4.9,3.9,8.8,8.8,8.8h5.9h41.5h5.9c1.6,0,2.9-1.3,2.9-2.9
		c0-1.6-1.3-2.9-2.9-2.9H32.2c-1.6,0-2.9-1.3-2.9-2.9C29.3,69,30.6,67.7,32.2,67.7z M26.8,26.6h66.5L83.2,61.8H34.6L26.8,26.6z"/>
	<path d="M29.3,88.2c0,4.9,3.9,8.8,8.8,8.8c4.9,0,8.8-3.9,8.8-8.8c0-4.9-3.9-8.8-8.8-8.8C33.2,79.4,29.3,83.3,29.3,88.2z M38.1,85.3
		c1.6,0,2.9,1.3,2.9,2.9c0,1.6-1.3,2.9-2.9,2.9c-1.6,0-2.9-1.3-2.9-2.9C35.2,86.6,36.5,85.3,38.1,85.3z"/>
	<path d="M70.7,88.2c0,4.9,3.9,8.8,8.8,8.8s8.8-3.9,8.8-8.8c0-4.9-3.9-8.8-8.8-8.8S70.7,83.3,70.7,88.2z M79.5,85.3
		c1.6,0,2.9,1.3,2.9,2.9c0,1.6-1.3,2.9-2.9,2.9c-1.6,0-2.9-1.3-2.9-2.9C76.6,86.6,77.9,85.3,79.5,85.3z"/>
</g>
</svg>
